<svg width="26" height="32" fill="none" xmlns="http://www.w3.org/2000/svg"><g clip-path="url(#clip0_5340_3470)"><path fill-rule="evenodd" clip-rule="evenodd" d="M19.884 25.81c.248.253.748.374 1.255.374.498 0 .867-.121 1.245-.373.25-.252.369-.636.369-.888 0-.373-.12-.755-.369-1.007a2.092 2.092 0 00-1.245-.373c-.507 0-1.006.12-1.255.373-.249.252-.508.634-.508 1.007 0 .252.26.636.508.888zm0 4.043c.248.252.748.383 1.255.383a2.1 2.1 0 001.245-.383c.25-.252.369-.504.369-.888 0-.372-.12-.756-.369-1.007a2.1 2.1 0 00-1.245-.383c-.507 0-1.006.131-1.255.383-.249.252-.508.635-.508 1.008 0 .383.26.635.508.887zm-4.88-8.084c.248.252.756.373 1.254.373.369 0 .878-.121 1.127-.373.367-.252.497-.635.497-1.008 0-.383-.13-.635-.497-.887-.25-.252-.757-.384-1.127-.384-.497 0-1.006.132-1.255.384-.249.252-.498.504-.498.887 0 .373.25.757.498 1.008zm0 4.042c.248.252.756.373 1.254.373.369 0 .878-.121 1.127-.373a1.12 1.12 0 00.497-.888c0-.373-.13-.755-.497-1.007-.25-.252-.757-.373-1.127-.373-.497 0-1.006.12-1.255.373-.249.252-.498.634-.498 1.007 0 .252.25.636.498.888zm0 4.042c.248.252.756.383 1.254.383.369 0 .878-.13 1.127-.383.367-.252.497-.504.497-.888 0-.372-.13-.756-.497-1.007-.25-.252-.757-.383-1.127-.383-.497 0-1.006.131-1.255.383-.249.252-.498.635-.498 1.008 0 .383.25.635.498.887zm-4.871-8.216c.367.253.747.505 1.244.505.508 0 .877-.252 1.255-.505.25-.252.499-.504.499-.877 0-.383-.25-.766-.499-1.018a2.101 2.101 0 00-1.255-.373c-.497 0-.877.121-1.244.373-.25.252-.38.635-.38 1.018 0 .373.13.625.38.877zm0 4.053c.367.242.747.494 1.244.494.508 0 .877-.252 1.255-.494.25-.131.499-.515.499-.888 0-.383-.25-.634-.499-.886-.377-.252-.747-.504-1.255-.504-.497 0-.877.252-1.244.504-.25.252-.38.503-.38.886 0 .373.13.757.38.888zm0 4.163c.367.252.747.383 1.244.383a2.11 2.11 0 001.255-.383c.25-.252.499-.625.499-1.007 0-.383-.25-.636-.499-.888a2.108 2.108 0 00-1.255-.383c-.497 0-.877.131-1.244.383-.25.252-.38.503-.38.888 0 .384.13.756.38 1.007zm12.251-19.838H10.133c-.25 0-.38 0-.628.13-.12.121-.12.252-.12.373v5.817c0 .12 0 .252.12.382.249.12.378.12.628.12h12.251c.25 0 .369 0 .498-.12.25-.131.25-.261.25-.382v-5.817c0-.12 0-.252-.25-.373-.13-.13-.249-.13-.498-.13zM19.008 8.12H13.26v.755h5.748V8.12zm.876 13.649c.248.252.748.373 1.255.373.498 0 .867-.121 1.245-.373.25-.252.369-.635.369-1.008 0-.383-.12-.635-.369-.887a2.1 2.1 0 00-1.245-.384c-.507 0-1.006.132-1.255.384-.249.252-.508.504-.508.887 0 .373.26.757.508 1.008zM2.88 6.729c-.13.887 0 1.774.378 2.53v.504c0 .12-.13.252-.26.252-.118.13-.247.13-.496.13-.13-.13-.25-.261-.25-.261v-.121c-.497-1.008-.626-2.026-.497-3.156C1.885 5.59 2.253 4.46 3 3.694c.746-.756 1.504-1.38 2.5-1.642.877-.373 1.884-.373 2.88-.253 0 0 .12 0 .248.132.13 0 .26 0 .38.12h.119c.086.088.13.176.13.263.128 0 .128.121.128.121v.252l-.129.12v.132c-.13 0-.249.131-.368.131h-.26c-.085 0-.168-.043-.248-.13h-.249c-.747-.132-1.634-.132-2.381.13-.627.253-1.375.757-1.873 1.26-.618.756-.997 1.513-.997 2.4zm-1.753-.252c-.13 1.26 0 2.53.627 3.668v.373c-.13.132-.13.252-.379.252-.12.132-.248.132-.377.132-.12-.132-.24-.132-.37-.251C.252 9.51.003 8.502.003 7.364V6.346a6.339 6.339 0 011.753-3.79C2.631 1.426 3.876.66 5.122.286a7.592 7.592 0 014.133 0h.249c.08.081.162.122.249.122 0 0 0 .13.13.13v.504s0 .131-.13.131v.121s-.13.131-.25.131h-.377l-.12-.13h-.12a7.679 7.679 0 00-3.386 0c-1.126.383-2.122 1.017-2.869 1.894-.876 1.008-1.375 2.147-1.504 3.286v.002zM8.13 4.834l-.12-.12a2.961 2.961 0 00-1.514 0c-.488.12-.867.503-1.244.877a2.14 2.14 0 00-.62 1.522c-.129.503 0 1.138.25 1.511.12.252.12.384.12.505 0 .13-.12.252-.25.383h-.378c-.119 0-.249 0-.249-.131-.12 0-.12-.121-.12-.121-.377-.757-.626-1.522-.496-2.278 0-.756.367-1.511.866-2.146.508-.504 1.126-1.008 1.753-1.14.748-.252 1.505-.252 2.123 0H8.5c.086.088.172.132.258.132.13 0 .25.12.25.252v.635h-.12c0 .121-.13.121-.26.121-.128.121-.248.121-.377 0h-.12v-.002zm.12 2.278h13.259V1.679c0-.384.129-.757.368-1.018.249-.252.637-.504 1.136-.504.368 0 .748.252.996.504.249.261.379.634.379 1.018v5.433c.497.12.876.252 1.116.373.258.252.497.635.497 1.017V30.61c0 .383-.239.766-.497 1.018-.369.252-.748.373-1.246.373H8.25c-.499 0-.867-.12-1.246-.373-.248-.25-.508-.634-.508-1.017V8.502c0-.382.26-.765.508-1.017a2.094 2.094 0 011.246-.373z" fill="#fff"/></g><defs><clipPath id="clip0_5340_3470"><path fill="#fff" d="M0 0h26v32H0z"/></clipPath></defs></svg>