<svg width="120" height="47" fill="none" xmlns="http://www.w3.org/2000/svg"><path d="M42.6 39.233h4.223l1.332-4.247.1.013c.046.136.096.27.139.408l1.051 3.39c.134.43.137.434.586.435 1.1.002 2.201 0 3.302.002.159 0 .318.015.512.117l-3.404 2.613 1.295 4.241-.1.058-3.425-2.601-3.425 2.593a49.553 49.553 0 01-.099-.073l1.295-4.216-3.412-2.615.03-.118zm-3.83 2.732l1.306 4.25-.088.06-3.444-2.613-3.428 2.596-.086-.06c.046-.17.088-.343.14-.512.338-1.1.68-2.2 1.018-3.3.128-.419.125-.423-.235-.699-.887-.68-1.778-1.357-2.666-2.037-.128-.098-.25-.205-.47-.387.564-.051 1.022-.024 1.477-.029.468-.005.935-.001 1.403-.001h1.462l1.32-4.216h.13l1.317 4.22h4.231l.033.11-3.42 2.618zm47.874 4.303l-3.438-2.607-3.482 2.644c.026-.2.024-.305.054-.402.33-1.085.67-2.167.995-3.254.24-.803.323-.59-.37-1.128-.804-.624-1.619-1.235-2.428-1.852-.132-.101-.262-.205-.385-.302.009-.036.01-.052.017-.066.006-.014.018-.036.027-.036l4.178-.001 1.337-4.268c.23.123.22.326.27.482.351 1.114.69 2.231 1.037 3.346.126.404.132.407.556.408 1.102.003 2.204.001 3.305.001h.595c-.14.143-.206.227-.287.289-.953.733-1.909 1.46-2.86 2.194-.333.255-.33.26-.206.661.341 1.1.683 2.198 1.023 3.298.053.173.096.348.144.522l-.082.072zm-20.712-7.03h4.221l1.336-4.245.089.009c.046.114.102.227.138.345.344 1.114.686 2.23 1.026 3.345.165.539.163.54.71.541 1.068.001 2.136 0 3.203 0h.484l.043.114-3.41 2.618 1.297 4.239c-.032.02-.064.042-.095.063l-3.431-2.605-3.424 2.594-.1-.066 1.287-4.204c-1.086-.913-2.278-1.73-3.396-2.638l.022-.11zm-9.58 6.962c.055-.187.109-.374.167-.56.338-1.1.667-2.202 1.022-3.295.093-.288.034-.454-.205-.632-.898-.665-1.781-1.35-2.67-2.027-.142-.11-.28-.223-.482-.384.526-.125.985-.053 1.438-.066.467-.014.934-.003 1.401-.003h1.464l1.326-4.214.103-.004c.055.146.12.29.166.44.345 1.114.687 2.23 1.03 3.344.133.429.134.432.588.433 1.1.002 2.202 0 3.303 0h.48l.033.091c-.133.113-.262.232-.4.338-.9.69-1.796 1.385-2.708 2.059-.243.18-.289.347-.196.632.357 1.093.689 2.195 1.028 3.294.058.187.106.376.08.628l-3.444-2.612-3.414 2.591-.11-.053zm11.414-19.284c.452-.075.455-.076.672.282.302.5.598 1.003.9 1.504.084.14.176.277.295.464.095-.133.174-.228.237-.333.336-.557.665-1.118 1.003-1.675.195-.322.2-.32.67-.235v4.113h-.393v-3.292a36.615 36.615 0 01-.112-.04l-1.396 2.306-1.383-2.301-.108.02c-.042 1.097.007 2.198-.028 3.313h-.328c-.097-.356-.12-3.554-.03-4.126zm-49.279 1.997l1.73 2.088c-.293.133-.463.04-.625-.16-.357-.44-.728-.871-1.095-1.304-.105-.125-.219-.243-.398-.441-.087.69.002 1.3-.064 1.936l-.388.024v-1.967c-.174.171-.269.252-.348.345-.4.47-.803.939-1.193 1.417-.155.19-.321.278-.614.149l1.73-2.086-1.682-1.984c.28-.128.447-.052.601.132.365.435.738.863 1.11 1.291.093.11.197.21.374.396v-1.852l.423-.021v1.857c.16-.137.25-.197.317-.275.395-.452.79-.906 1.175-1.367.153-.184.317-.292.629-.167l-1.682 1.99zm43.818-2.107a2.16 2.16 0 012.178 2.197 2.169 2.169 0 01-2.184 2.145 2.174 2.174 0 01-2.18-2.201c.016-1.2.98-2.145 2.186-2.141zm-.017.411c-.986.008-1.734.76-1.74 1.748a1.738 1.738 0 001.768 1.778c.98-.008 1.731-.768 1.737-1.756.007-1.011-.758-1.777-1.765-1.77zm-23.604 3.931a2.163 2.163 0 01-2.206-2.172 2.158 2.158 0 012.156-2.17 2.161 2.161 0 012.207 2.17 2.17 2.17 0 01-2.157 2.172zm-.034-3.93a1.727 1.727 0 00-1.747 1.741 1.742 1.742 0 001.763 1.784c1.004-.006 1.752-.781 1.738-1.8-.014-.997-.76-1.73-1.754-1.725zm-12.137-.303v4.106l-.367.047v-3.207l-.087-.04c-.078.086-.168.166-.234.261-.615.892-1.226 1.787-1.838 2.68-.122.18-.224.394-.536.255V26.89h.36v3.178l.092.039c.08-.087.17-.165.236-.26.615-.893 1.225-1.788 1.837-2.682.122-.179.23-.39.537-.25zm20.661-.013v4.128h-.385v-3.175l-.085-.03c-.078.095-.165.185-.234.286a590.33 590.33 0 00-1.836 2.682c-.129.19-.253.363-.534.216V26.9h.371v3.326c.157-.174.245-.252.31-.347.615-.892 1.224-1.788 1.838-2.68.119-.173.21-.403.555-.295zm30.463.384h-2.144v3.735l-.413.042v-4.172h2.933v4.138l-.377.032v-3.775zm-47.976 3.729c-.035-.156-.028-.271.16-.303.443-.074.6-.403.628-.79.042-.582.049-1.165.061-1.748.009-.414.002-.829.002-1.277h2.697v4.129l-.383.037v-3.777h-1.892c0 .405.011.784-.002 1.162-.02.565-.019 1.135-.098 1.693-.088.631-.477.939-1.044.923-.045-.001-.09-.034-.129-.05zm55.057.029h-.37v-3.756h-1.874c-.01.18-.026.342-.027.503-.004.55.012 1.102-.008 1.652a3.835 3.835 0 01-.126.887c-.151.538-.496.745-1.117.709-.059-.145-.099-.282.13-.32.444-.073.595-.393.648-.78a6.43 6.43 0 00.057-.797c.007-.733.002-1.466.002-2.19.379-.11 2.012-.132 2.685-.04v4.132zm18.655-3.213l-.321.176c-.831-.927-1.97-1.055-2.725-.32-.73.71-.72 1.896.021 2.595.767.722 1.876.593 2.687-.329.051.015.116.025.17.053.055.029.099.077.145.114-.456.819-1.367 1.194-2.316.968a2.132 2.132 0 01-1.662-2.05c-.022-.995.57-1.85 1.49-2.133.823-.252 1.952-.066 2.51.927h.001zm-9.383-.942l.37-.017v1.889c.197-.172.31-.259.409-.358.424-.424.852-.845 1.263-1.282.188-.199.38-.32.73-.215-.293.378-.626.684-.942 1.003-.317.32-.645.626-1.012.981.68.713 1.331 1.392 1.988 2.08-.397.134-.404.14-.646-.105-.433-.438-.858-.886-1.287-1.328-.125-.13-.254-.255-.466-.467v1.953l-.407.037v-4.171zm-38.45 1.975l2.021 2.117c-.287.17-.478.077-.664-.12-.435-.46-.879-.912-1.32-1.365-.112-.115-.23-.223-.435-.42v1.958h-.406v-4.12c.066-.016.126-.039.187-.044.046-.003.093.017.194.037v1.815c.164-.124.256-.178.329-.25.46-.458.916-.922 1.377-1.38.225-.223.228-.219.716-.205-.235.253-.425.463-.62.667-.22.23-.436.46-.665.679-.217.206-.448.397-.714.631zm34.965-.128v.408h-1.82c-.044.51-.03.981-.005 1.51.313.007.606.016.899.02.3.003.6 0 .9.004.242.004.26.146.198.362h-2.402v-4.178h.64c.484 0 .967.006 1.45-.002.237-.003.351.076.263.386h-1.933v1.49h1.81zm-45.702-2.372c.1-.16.143-.294.19-.296.43-.017.86-.015 1.29-.003.047.002.09.108.188.235-.56.146-1.053.07-1.668.064z" fill="#fff"/><g clip-path="url(#clip0_5143_4376)"><path d="M6.902 0c1.78 0 3.279.6 4.495 1.798 1.217 1.199 1.825 2.671 1.825 4.416 0 1.746-.608 3.218-1.825 4.416-1.216 1.2-2.715 1.799-4.495 1.799H3.649v6.082H0V0h6.902zm0 9.017c.776 0 1.42-.264 1.93-.793.512-.546.767-1.216.767-2.01 0-.81-.255-1.48-.767-2.01-.51-.528-1.154-.793-1.93-.793H3.649v5.606h3.253zm19.934 9.494V7.219l-7.933 11.292h-2.776V0h3.649v11.318L27.709 0h2.777v18.51h-3.65zM44.102 0h3.649v18.51H44.1v-6.769a9.224 9.224 0 01-3.622.714c-1.869 0-3.411-.52-4.628-1.56-1.199-1.058-1.798-2.486-1.798-4.284V0h3.65v6.135c0 .881.255 1.578.766 2.09.529.493 1.225.74 2.09.74 1.286 0 2.467-.256 3.543-.767V0zm26.994 0v3.49h-4.998v15.02h-3.65V3.49h-4.97V0h13.618zm13.123 18.51l-1.11-3.331H75.73l-1.111 3.332h-3.94L77.158 0h4.522l6.505 18.51h-3.967zm-7.325-6.742h5.077l-2.538-7.563-2.539 7.563zM99.686 0h3.649l-5.553 13.407c-1.48 3.596-3.913 5.298-7.298 5.104V15.1c.987.088 1.78-.044 2.38-.397.617-.37 1.128-.96 1.533-1.772L88.342 0h3.649l4.046 8.938L99.687 0zm16.676 0h3.623v18.51h-3.623v-7.668h-6.876v7.669h-3.649V0h3.649v7.351h6.876V0z" fill="#fff"/></g><defs><clipPath id="clip0_5143_4376"><path fill="#fff" d="M0 0h120v18.831H0z"/></clipPath></defs></svg>