<svg width="32" height="32" fill="none" xmlns="http://www.w3.org/2000/svg"><path fill-rule="evenodd" clip-rule="evenodd" d="M16.263 28.107c-2.4 0-3.516-.35-5.454-1.752-1.227 1.576-5.11 2.809-5.28.7 0-1.582-.35-2.92-.747-4.38-.473-1.798-1.01-3.801-1.01-6.704 0-6.932 5.688-12.147 12.427-12.147 6.745 0 12.03 5.472 12.03 12.211.023 6.636-5.33 12.036-11.966 12.072zm.1-18.291c-3.283-.17-5.84 2.102-6.407 5.665-.467 2.949.362 6.54 1.069 6.727.338.082 1.191-.607 1.723-1.138a6.073 6.073 0 002.966 1.057 6.249 6.249 0 006.535-5.823 6.249 6.249 0 00-5.887-6.482v-.006z" fill="#fff"/></svg>